<svg width="1440" height="200" viewBox="0 0 1440 200" fill="none" xmlns="http://www.w3.org/2000/svg">
<g clip-path="url(#clip0_515_182)">
<rect x="622" width="200" height="200" rx="100" fill="white" fill-opacity="0.05" style="fill:white;fill-opacity:0.05;"/>
<g filter="url(#filter1_f_515_182)">
<ellipse cx="702.5" cy="100" rx="53.5" ry="30" fill="#5435BB" style="fill:#5435BB;fill:color(display-p3 0.3310 0.2089 0.7324);fill-opacity:1;"/>
</g>
<g filter="url(#filter2_f_515_182)">
<ellipse cx="626.5" cy="103.5" rx="32.5" ry="68.5" fill="#F43F5E" style="fill:#F43F5E;fill:color(display-p3 0.9569 0.2471 0.3686);fill-opacity:1;"/>
</g>
<g filter="url(#filter3_f_515_182)">
<circle cx="773.5" cy="101.5" r="32.5" fill="#4D6794" style="fill:#4D6794;fill:color(display-p3 0.3026 0.4041 0.5795);fill-opacity:1;"/>
</g>
<rect x="670" y="92" width="3" height="23" rx="1.5" fill="#D9D9D9" style="fill:#D9D9D9;fill:color(display-p3 0.8510 0.8510 0.8510);fill-opacity:1;"/>
<rect x="653" y="100" width="3" height="7" rx="1.5" fill="#D9D9D9" style="fill:#D9D9D9;fill:color(display-p3 0.8510 0.8510 0.8510);fill-opacity:1;"/>
<rect x="636" y="100" width="3" height="7" rx="1.5" fill="#D9D9D9" style="fill:#D9D9D9;fill:color(display-p3 0.8510 0.8510 0.8510);fill-opacity:1;"/>
<rect x="687" y="77" width="3" height="53" rx="1.5" fill="#D9D9D9" style="fill:#D9D9D9;fill:color(display-p3 0.8510 0.8510 0.8510);fill-opacity:1;"/>
<rect x="704" y="84" width="3" height="39" rx="1.5" fill="#D9D9D9" style="fill:#D9D9D9;fill:color(display-p3 0.8510 0.8510 0.8510);fill-opacity:1;"/>
<rect x="721" y="91" width="3" height="25" rx="1.5" fill="#D9D9D9" style="fill:#D9D9D9;fill:color(display-p3 0.8510 0.8510 0.8510);fill-opacity:1;"/>
<rect x="738" y="77" width="3" height="53" rx="1.5" fill="#D9D9D9" style="fill:#D9D9D9;fill:color(display-p3 0.8510 0.8510 0.8510);fill-opacity:1;"/>
<rect x="755" y="86" width="3" height="35" rx="1.5" fill="#D9D9D9" style="fill:#D9D9D9;fill:color(display-p3 0.8510 0.8510 0.8510);fill-opacity:1;"/>
<rect x="772" y="93" width="3" height="21" rx="1.5" fill="#D9D9D9" style="fill:#D9D9D9;fill:color(display-p3 0.8510 0.8510 0.8510);fill-opacity:1;"/>
<rect x="789" y="100" width="3" height="7" rx="1.5" fill="#D9D9D9" style="fill:#D9D9D9;fill:color(display-p3 0.8510 0.8510 0.8510);fill-opacity:1;"/>
<rect x="806" y="100" width="3" height="7" rx="1.5" fill="#D9D9D9" style="fill:#D9D9D9;fill:color(display-p3 0.8510 0.8510 0.8510);fill-opacity:1;"/>
</g>
<rect x="622.5" y="0.5" width="199" height="199" rx="99.5" stroke="url(#paint0_radial_515_182)" style=""/>
<path d="M1356.31 113.75C1357.72 113.549 1359.06 112.612 1360.34 111.078C1362.83 108.074 1365.32 104.412 1367.8 100.102C1369.03 97.9821 1370.2 96.7142 1371.3 96.1758C1371.84 95.9124 1372.36 95.8227 1372.87 95.8907C1373.38 95.9595 1373.92 96.1926 1374.49 96.6211C1377.03 98.5489 1379.63 99.4315 1382.25 99.1993C1384.44 99.0058 1386.77 100.499 1389.22 104.082C1391.71 107.732 1394.31 109.75 1397.04 109.82C1398.44 109.856 1399.79 109.25 1401.09 108.102C1402.39 106.956 1403.66 105.245 1404.91 103C1405.51 101.917 1406.09 101.172 1406.64 100.727C1407.18 100.289 1407.66 100.16 1408.1 100.234C1408.56 100.313 1409.08 100.63 1409.66 101.297C1410.23 101.961 1410.83 102.929 1411.44 104.227C1412.07 105.567 1412.71 106.636 1413.36 107.414C1414.02 108.188 1414.72 108.717 1415.49 108.895C1416.27 109.077 1417.04 108.872 1417.75 108.363C1418.44 107.863 1419.1 107.06 1419.74 106C1420.97 103.952 1422.08 103.108 1423.04 103.066C1423.99 103.026 1425.09 103.753 1426.31 105.688C1428.8 109.628 1431.38 111.919 1434.09 112.27C1436.57 112.591 1438.85 112.766 1440.92 112.797C1442.11 112.815 1443.04 112.339 1443.66 111.367C1444.24 110.436 1444.5 109.097 1444.5 107.422L1444.5 107.41L1444.4 102.488L1444 102.496L1444 102L1443.39 102L1443.4 102.512L1443.5 107.422C1443.5 109.027 1443.25 110.141 1442.81 110.836C1442.4 111.489 1441.8 111.81 1440.94 111.797C1438.91 111.767 1436.67 111.595 1434.21 111.277C1431.98 110.988 1429.61 109.044 1427.15 105.156C1425.9 103.178 1424.53 102.001 1423 102.066C1421.49 102.132 1420.13 103.405 1418.88 105.484C1418.28 106.488 1417.7 107.163 1417.16 107.551C1416.64 107.929 1416.16 108.022 1415.71 107.918C1415.24 107.808 1414.71 107.459 1414.12 106.77C1413.55 106.084 1412.95 105.102 1412.34 103.805C1411.72 102.464 1411.07 101.401 1410.41 100.641C1409.76 99.8833 1409.04 99.382 1408.26 99.2501C1407.47 99.1156 1406.7 99.3828 1406.01 99.9493C1405.32 100.508 1404.67 101.377 1404.04 102.512C1402.81 104.705 1401.61 106.31 1400.43 107.352C1399.26 108.39 1398.14 108.848 1397.06 108.82C1394.84 108.763 1392.49 107.099 1390.04 103.516C1387.55 99.8663 1384.92 97.9592 1382.16 98.2032C1379.84 98.4078 1377.49 97.6399 1375.09 95.8243C1374.42 95.3166 1373.72 94.9952 1373 94.8985C1372.27 94.8016 1371.56 94.9364 1370.86 95.2774C1369.49 95.9492 1368.19 97.4302 1366.94 99.6016C1364.48 103.876 1362.02 107.487 1359.57 110.438C1358.37 111.881 1357.23 112.611 1356.17 112.762C1355.13 112.909 1354.03 112.517 1352.87 111.445C1350.43 109.209 1347.99 106.191 1345.53 102.383C1344.27 100.435 1342.97 99.0971 1341.61 98.4571C1340.21 97.7992 1338.8 97.9039 1337.43 98.7383C1335.06 100.182 1332.73 100.546 1330.41 99.879C1328.96 99.4649 1327.55 99.9155 1326.23 101.07C1324.92 102.213 1323.65 104.078 1322.4 106.613C1321.79 107.848 1321.22 108.585 1320.71 108.926C1320.47 109.089 1320.26 109.15 1320.07 109.148C1319.88 109.147 1319.67 109.082 1319.42 108.914C1318.91 108.564 1318.34 107.817 1317.73 106.574C1317.13 105.345 1316.52 103.689 1315.91 101.598C1314.67 97.3819 1313.41 94.411 1312.11 92.7657C1311.46 91.9422 1310.75 91.3875 1309.96 91.2344C1309.15 91.0764 1308.38 91.3707 1307.68 91.9805C1305.16 94.189 1302.66 97.2738 1300.17 101.215C1298.95 103.142 1297.78 104.281 1296.68 104.75C1295.63 105.198 1294.58 105.061 1293.46 104.246C1291.07 102.503 1288.64 99.495 1286.18 95.1719C1285.55 94.0579 1284.88 93.2344 1284.16 92.7735C1283.41 92.2919 1282.61 92.2153 1281.82 92.5899C1281.08 92.9444 1280.4 93.6771 1279.76 94.6914C1279.12 95.7168 1278.48 97.0844 1277.86 98.7774C1276.63 102.115 1275.42 104.387 1274.25 105.66C1273.67 106.293 1273.13 106.646 1272.63 106.785C1272.15 106.92 1271.66 106.868 1271.14 106.594C1269.78 105.87 1268.39 105.794 1267 106.387C1265.65 106.968 1264.35 108.176 1263.09 109.93C1261.88 111.601 1260.84 112.042 1259.92 111.773C1259.43 111.628 1258.88 111.259 1258.3 110.598C1257.72 109.938 1257.12 109.013 1256.52 107.813C1254.03 102.9 1251.53 99.0914 1249.02 96.4102C1248.36 95.7137 1247.67 95.2221 1246.95 94.9805C1246.22 94.7355 1245.48 94.761 1244.76 95.0469C1243.35 95.6039 1242.04 97.1339 1240.79 99.4453C1239.57 101.713 1238.36 103.415 1237.17 104.574C1235.99 105.733 1234.85 106.322 1233.76 106.43C1232.72 106.532 1231.62 106.093 1230.45 104.965C1229.27 103.833 1228.06 102.046 1226.84 99.5703C1226.21 98.2967 1225.56 97.3143 1224.88 96.6602C1224.2 96.003 1223.45 95.6384 1222.64 95.711C1221.84 95.7829 1221.11 96.2706 1220.45 97.0274C1219.79 97.7876 1219.14 98.8713 1218.52 100.254C1217.29 102.961 1216.09 104.649 1214.97 105.434C1214.43 105.817 1213.91 105.97 1213.43 105.945C1212.94 105.921 1212.42 105.713 1211.86 105.266C1209.29 103.204 1206.64 102.558 1203.97 103.453C1202.88 103.82 1201.78 103.717 1200.66 103.113C1199.51 102.501 1198.33 101.364 1197.12 99.6563C1195.85 97.878 1194.48 96.8511 1192.98 96.9102C1191.49 96.9689 1190.13 98.0906 1188.88 99.961C1186.42 103.606 1184.05 105.493 1181.79 105.856C1179.57 106.21 1177.26 105.083 1174.83 102.176C1172.34 99.1892 1169.84 96.7277 1167.34 94.8008C1166.04 93.8037 1164.7 93.2582 1163.34 93.2149C1161.97 93.1716 1160.63 93.6347 1159.32 94.5547C1156.81 96.3272 1154.3 98.6741 1151.81 101.59C1149.37 104.439 1146.98 106.107 1144.65 106.68C1142.11 107.305 1139.57 108.531 1137.06 110.344C1135.88 111.192 1134.74 111.623 1133.62 111.676C1132.5 111.728 1131.36 111.407 1130.2 110.676C1127.73 109.13 1125.26 107.504 1122.79 105.797C1120.25 104.04 1117.68 103.159 1115.08 103.203C1114.03 103.221 1112.92 102.704 1111.73 101.504C1110.55 100.303 1109.35 98.4614 1108.12 95.9532C1107.49 94.6645 1106.84 93.6858 1106.15 93.0586C1105.46 92.4226 1104.68 92.1126 1103.85 92.293C1103.06 92.4665 1102.35 93.0641 1101.7 93.9375C1101.05 94.8211 1100.41 96.0506 1099.79 97.6055C1099.17 99.1231 1098.57 100.324 1097.98 101.215C1097.38 102.112 1096.82 102.662 1096.31 102.93C1095.82 103.183 1095.37 103.193 1094.89 102.977C1094.39 102.747 1093.84 102.244 1093.24 101.391C1090.75 97.8139 1088.26 94.8338 1085.75 92.461C1085.09 91.8308 1084.38 91.4233 1083.64 91.3008C1082.88 91.1769 1082.14 91.3569 1081.44 91.793C1080.07 92.643 1078.78 94.5001 1077.54 97.2188C1076.31 99.9043 1075.09 102.052 1073.88 103.672C1072.67 105.295 1071.49 106.363 1070.35 106.926C1069.23 107.476 1068.14 107.526 1067.04 107.094C1065.92 106.653 1064.75 105.691 1063.54 104.145C1061.03 100.932 1058.42 99.248 1055.71 99.3633C1053.15 99.4724 1050.6 100.242 1048.07 101.656C1045.56 103.059 1043.05 104.893 1040.55 107.156C1038.16 109.324 1035.86 110.036 1033.59 109.457C1031.05 108.806 1028.5 108.715 1025.96 109.191C1024.89 109.39 1023.8 109.096 1022.64 108.215C1021.48 107.325 1020.28 105.853 1019.06 103.758C1017.81 101.61 1016.54 99.9557 1015.25 98.8203C1013.96 97.6829 1012.61 97.0456 1011.23 96.9883C1008.69 96.8831 1006.15 97.2708 1003.63 98.1485C1001.05 99.043 998.508 100.891 996 103.645C994.832 104.927 993.787 105.262 992.812 104.953C991.764 104.621 990.606 103.501 989.383 101.383C988.133 99.2196 986.813 97.807 985.387 97.3633C983.888 96.8982 982.462 97.5443 981.16 98.9883C979.97 100.309 978.85 100.906 977.805 100.938C976.765 100.969 975.656 100.444 974.473 99.2031C971.934 96.5384 969.292 95.3823 966.582 95.9766C964.339 96.4681 962.03 95.6006 959.625 93.1524C958.959 92.4746 958.242 92.0441 957.469 91.9609C956.685 91.8768 955.938 92.1593 955.246 92.7149C953.896 93.7996 952.621 96.0346 951.383 99.2852C950.772 100.889 950.174 102.058 949.598 102.816C949.013 103.586 948.522 103.843 948.137 103.848C947.753 103.851 947.263 103.605 946.68 102.848C946.105 102.101 945.51 100.944 944.898 99.3516C944.273 97.7221 943.635 96.4316 942.984 95.4961C942.342 94.5723 941.639 93.9275 940.852 93.7149C940.021 93.4913 939.233 93.7791 938.531 94.4102C937.842 95.0296 937.188 96.0153 936.559 97.3164C935.334 99.8484 934.128 101.661 932.953 102.793C931.783 103.92 930.693 104.329 929.66 104.184C927.166 103.833 924.67 103.643 922.176 103.609C919.992 103.579 917.645 101.703 915.18 97.5469C913.936 95.4509 912.567 94.1808 911.031 94.207C910.262 94.2202 909.533 94.5635 908.855 95.1524C908.181 95.7387 907.532 96.5907 906.898 97.6797C905.678 99.7794 904.5 101.064 903.391 101.637C902.846 101.918 902.321 102.024 901.809 101.98C901.293 101.937 900.753 101.737 900.191 101.352C898.881 100.452 897.533 100.028 896.16 100.133C894.792 100.238 893.46 100.864 892.168 101.949C889.752 103.978 887.375 105.044 885.035 105.211C882.854 105.366 880.522 103.783 878.066 100.031C876.812 98.1158 875.44 96.9864 873.922 97.043C872.605 97.0923 871.4 98.0297 870.281 99.6055L869.352 101C868.308 102.456 867.361 103.02 866.535 102.992C865.578 102.959 864.465 102.123 863.238 100.074C861.986 97.9828 860.673 96.6052 859.266 96.1133C857.792 95.5987 856.365 96.0977 855.043 97.3828C852.647 99.7124 850.347 100.465 848.102 99.8516C845.466 99.1314 842.846 99.6601 840.273 101.371C839.714 101.743 839.178 101.931 838.664 101.961C838.153 101.991 837.629 101.866 837.082 101.566C835.968 100.956 834.788 99.627 833.566 97.4766C832.92 96.3383 832.156 95.5225 831.254 95.1172C830.333 94.7038 829.341 94.7498 828.32 95.1914C827.313 95.6276 826.261 96.4511 825.168 97.6172C824.072 98.7872 822.909 100.327 821.68 102.227L822 102.434L822 103L822.371 103L822.52 102.773C823.729 100.905 824.856 99.4171 825.898 98.3047C826.944 97.1885 827.884 96.4693 828.715 96.1094C829.531 95.7559 830.228 95.751 830.844 96.0273C831.479 96.3124 832.105 96.9307 832.695 97.9688C833.947 100.172 835.242 101.701 836.602 102.445C837.289 102.822 837.999 102.999 838.723 102.957C839.446 102.915 840.151 102.654 840.828 102.203C843.202 100.625 845.529 100.185 847.84 100.816C850.541 101.554 853.188 100.577 855.738 98.0977C856.889 96.9792 857.935 96.7066 858.934 97.0547C859.999 97.4267 861.162 98.5499 862.383 100.59C863.628 102.67 864.988 103.941 866.504 103.992C868.033 104.044 869.403 102.849 870.652 100.848C871.875 98.8888 872.989 98.0802 873.957 98.043C874.912 98.0072 876.012 98.7174 877.23 100.578C879.721 104.384 882.34 106.404 885.105 106.207C887.712 106.022 890.283 104.839 892.812 102.715C893.993 101.723 895.133 101.213 896.238 101.129C897.338 101.045 898.462 101.378 899.625 102.176C900.3 102.639 901.002 102.915 901.723 102.977C902.445 103.038 903.157 102.88 903.848 102.523C905.212 101.819 906.509 100.334 907.762 98.1797C908.365 97.1431 908.95 96.3938 909.512 95.9063C910.07 95.4216 910.58 95.2155 911.047 95.207C911.984 95.191 913.091 95.9858 914.32 98.0586C916.801 102.241 919.402 104.572 922.164 104.609C924.616 104.643 927.067 104.831 929.52 105.176C930.96 105.378 932.345 104.771 933.648 103.516C934.946 102.265 936.213 100.329 937.461 97.75C938.068 96.4951 938.652 95.6445 939.199 95.1524C939.733 94.6723 940.183 94.5704 940.59 94.6797C941.039 94.8006 941.57 95.2131 942.164 96.0664C942.75 96.9087 943.353 98.1179 943.965 99.7109C944.59 101.34 945.229 102.599 945.891 103.457C946.544 104.304 947.291 104.856 948.145 104.848C948.996 104.84 949.743 104.276 950.395 103.418C951.054 102.549 951.692 101.28 952.316 99.6406C953.551 96.401 954.752 94.3944 955.875 93.4922C956.419 93.0555 956.911 92.9084 957.363 92.957C957.826 93.0073 958.344 93.2715 958.914 93.8516C961.456 96.4389 964.094 97.5459 966.797 96.9531C969.033 96.4627 971.338 97.3637 973.746 99.8906C975.036 101.245 976.403 101.98 977.836 101.938C979.263 101.894 980.62 101.083 981.902 99.6602C983.072 98.3621 984.117 98.0185 985.09 98.3203C986.136 98.6458 987.292 99.7635 988.516 101.883C989.765 104.045 991.084 105.454 992.508 105.906C994.005 106.381 995.434 105.752 996.738 104.32C999.177 101.643 1001.58 99.916 1003.95 99.0938C1006.37 98.2551 1008.78 97.8888 1011.19 97.9883C1012.28 98.0334 1013.41 98.5339 1014.59 99.5703C1015.77 100.609 1016.98 102.165 1018.2 104.262C1019.45 106.411 1020.73 108.006 1022.04 109.008C1023.36 110.017 1024.73 110.439 1026.14 110.176C1028.54 109.727 1030.94 109.81 1033.35 110.426C1036.03 111.113 1038.67 110.214 1041.23 107.898C1043.68 105.677 1046.12 103.888 1048.55 102.527C1050.97 101.179 1053.37 100.461 1055.75 100.359C1057.98 100.265 1060.32 101.642 1062.76 104.762C1064.02 106.381 1065.32 107.492 1066.68 108.023C1068.05 108.564 1069.44 108.49 1070.79 107.82C1072.13 107.162 1073.42 105.961 1074.68 104.27C1075.94 102.574 1077.2 100.358 1078.45 97.6328C1079.68 94.9408 1080.86 93.324 1081.96 92.6406C1082.5 92.3111 1082.99 92.2108 1083.47 92.2891C1083.96 92.3693 1084.5 92.6462 1085.07 93.1875C1087.51 95.5027 1089.96 98.4261 1092.42 101.961C1093.06 102.884 1093.74 103.551 1094.48 103.887C1095.24 104.236 1096.02 104.205 1096.77 103.813C1097.5 103.433 1098.17 102.73 1098.81 101.77C1099.46 100.802 1100.09 99.5343 1100.71 97.9805C1101.33 96.4642 1101.93 95.3225 1102.51 94.5352C1103.1 93.7389 1103.62 93.3668 1104.07 93.2696C1104.48 93.18 1104.94 93.2992 1105.48 93.793C1106.03 94.2967 1106.62 95.1483 1107.22 96.3906C1108.47 98.9451 1109.73 100.893 1111.02 102.203C1112.31 103.514 1113.67 104.227 1115.1 104.203C1117.45 104.163 1119.82 104.953 1122.23 106.617C1124.71 108.332 1127.18 109.969 1129.66 111.523C1130.97 112.343 1132.31 112.74 1133.66 112.676C1135.02 112.612 1136.34 112.091 1137.64 111.156C1140.07 109.403 1142.49 108.241 1144.89 107.652C1147.5 107.011 1150.06 105.176 1152.57 102.242C1155.02 99.3736 1157.47 97.0854 1159.9 95.3711C1161.07 94.5478 1162.2 94.1798 1163.3 94.2149C1164.41 94.2501 1165.55 94.6909 1166.73 95.5938C1169.16 97.4669 1171.61 99.8732 1174.07 102.816C1176.59 105.838 1179.22 107.281 1181.95 106.844C1184.63 106.414 1187.21 104.229 1189.7 100.52C1190.92 98.7125 1192.03 97.9453 1193.02 97.9063C1193.99 97.8678 1195.09 98.535 1196.3 100.238C1197.56 102.012 1198.85 103.282 1200.18 103.996C1201.53 104.719 1202.91 104.864 1204.29 104.402C1206.56 103.639 1208.86 104.145 1211.24 106.047C1211.91 106.589 1212.63 106.907 1213.38 106.945C1214.13 106.983 1214.86 106.736 1215.55 106.254C1216.9 105.307 1218.18 103.406 1219.43 100.668C1220.03 99.328 1220.63 98.3405 1221.2 97.6836C1221.78 97.0236 1222.29 96.7464 1222.73 96.7071C1223.15 96.6695 1223.63 96.8433 1224.19 97.3789C1224.75 97.9191 1225.33 98.7859 1225.94 100.012C1227.19 102.536 1228.46 104.441 1229.75 105.688C1231.05 106.937 1232.43 107.567 1233.86 107.426C1235.25 107.289 1236.58 106.545 1237.87 105.289C1239.16 104.033 1240.42 102.234 1241.67 99.918C1242.9 97.6448 1244.06 96.3955 1245.13 95.9766C1245.64 95.7753 1246.13 95.7608 1246.64 95.9297C1247.15 96.1026 1247.7 96.4777 1248.29 97.0977C1250.71 99.6836 1253.16 103.399 1255.62 108.266C1256.25 109.51 1256.89 110.513 1257.55 111.258C1258.2 112 1258.9 112.513 1259.64 112.731C1261.2 113.187 1262.63 112.276 1263.89 110.512C1265.11 108.829 1266.28 107.785 1267.4 107.305C1268.49 106.837 1269.57 106.888 1270.68 107.477C1271.4 107.859 1272.15 107.96 1272.9 107.75C1273.64 107.544 1274.33 107.051 1274.99 106.336C1276.29 104.914 1277.56 102.49 1278.8 99.125C1279.41 97.4663 1280.02 96.1673 1280.61 95.2227C1281.21 94.27 1281.76 93.7261 1282.25 93.4922C1282.7 93.2787 1283.14 93.3021 1283.63 93.6133C1284.14 93.9457 1284.71 94.6076 1285.32 95.668C1287.81 100.045 1290.32 103.192 1292.87 105.055C1294.23 106.043 1295.65 106.276 1297.08 105.668C1298.45 105.08 1299.76 103.734 1301.01 101.746C1303.47 97.8564 1305.91 94.8594 1308.34 92.7344C1308.88 92.2609 1309.35 92.1329 1309.77 92.2149C1310.22 92.3021 1310.74 92.6472 1311.33 93.3868C1312.5 94.8685 1313.71 97.674 1314.95 101.879C1315.57 103.998 1316.2 105.712 1316.84 107.012C1317.46 108.296 1318.13 109.238 1318.86 109.738C1319.23 109.995 1319.63 110.145 1320.06 110.148C1320.49 110.151 1320.9 110.006 1321.27 109.754C1322 109.263 1322.67 108.33 1323.3 107.055C1324.52 104.567 1325.72 102.839 1326.89 101.824C1328.04 100.822 1329.1 100.544 1330.13 100.84C1332.76 101.594 1335.37 101.163 1337.95 99.5938C1339.05 98.9216 1340.11 98.8544 1341.19 99.3594C1342.3 99.8826 1343.48 101.041 1344.69 102.926C1347.18 106.782 1349.68 109.873 1352.19 112.184C1353.5 113.384 1354.88 113.953 1356.31 113.75Z" fill="url(#paint1_radial_515_182)" style=""/>
<path d="M87.6914 113.75C86.2796 113.549 84.9382 112.612 83.6641 111.078C81.1685 108.074 78.679 104.412 76.1953 100.102C74.974 97.9821 73.7996 96.7142 72.6992 96.1758C72.1607 95.9124 71.6427 95.8227 71.1328 95.8907C70.6185 95.9595 70.0778 96.1926 69.5117 96.6211C66.9652 98.5489 64.3717 99.4315 61.7461 99.1993C59.5589 99.0058 57.2318 100.499 54.7813 104.082C52.2852 107.732 49.6853 109.75 46.9609 109.82C45.5613 109.856 44.2084 109.25 42.9102 108.102C41.6148 106.956 40.3447 105.245 39.0938 103C38.4901 101.917 37.9078 101.172 37.3594 100.727C36.8204 100.289 36.3422 100.16 35.9023 100.234C35.4436 100.313 34.9224 100.63 34.3437 101.297C33.7676 101.961 33.1705 102.929 32.5625 104.227C31.9344 105.567 31.2938 106.636 30.6367 107.414C29.9824 108.188 29.2762 108.717 28.5117 108.895C27.7261 109.077 26.963 108.872 26.2539 108.363C25.5575 107.863 24.8969 107.06 24.2617 106C23.0347 103.952 21.9176 103.108 20.957 103.066C20.013 103.026 18.9136 103.753 17.6914 105.688C15.2017 109.628 12.6217 111.919 9.91406 112.27C7.42616 112.591 5.1471 112.766 3.07813 112.797C1.89422 112.815 0.955522 112.339 0.343751 111.367C-0.241749 110.436 -0.499999 109.097 -0.5 107.422L-0.5 107.41L-0.398437 102.488L4.33699e-08 102.496L0 102L0.609375 102L0.601563 102.512L0.5 107.422C0.500001 109.027 0.754147 110.141 1.19141 110.836C1.60296 111.489 2.19995 111.81 3.0625 111.797C5.08646 111.767 7.32703 111.595 9.78516 111.277C12.024 110.988 14.3909 109.044 16.8477 105.156C18.0977 103.178 19.4717 102.001 21 102.066C22.5125 102.132 23.8711 103.405 25.1172 105.484C25.7185 106.488 26.2959 107.163 26.8359 107.551C27.3623 107.929 27.8354 108.022 28.2852 107.918C28.7573 107.808 29.2926 107.459 29.875 106.77C30.4538 106.084 31.0485 105.102 31.6563 103.805C32.2845 102.464 32.9259 101.401 33.5859 100.641C34.2434 99.8833 34.9607 99.382 35.7383 99.2501C36.5344 99.1156 37.2951 99.3828 37.9922 99.9493C38.6797 100.508 39.3323 101.377 39.9648 102.512C41.1868 104.705 42.3928 106.31 43.5703 107.352C44.7446 108.39 45.8647 108.848 46.9375 108.82C49.1594 108.763 51.5067 107.099 53.957 103.516C56.453 99.8663 59.0767 97.9592 61.8359 98.2032C64.1558 98.4078 66.5074 97.6399 68.9062 95.8243C69.5769 95.3166 70.2777 94.9952 71 94.8985C71.7257 94.8016 72.4436 94.9364 73.1406 95.2774C74.5127 95.9492 75.8113 97.4302 77.0625 99.6016C79.525 103.876 81.983 107.487 84.4336 110.438C85.6329 111.881 86.7705 112.611 87.832 112.762C88.8728 112.909 89.9666 112.517 91.1328 111.445C93.5656 109.209 96.0112 106.191 98.4688 102.383C99.7256 100.435 101.026 99.0971 102.387 98.4571C103.786 97.7992 105.201 97.9039 106.57 98.7383C108.941 100.182 111.272 100.546 113.594 99.879C115.038 99.4649 116.445 99.9155 117.77 101.07C119.079 102.213 120.35 104.078 121.598 106.613C122.206 107.848 122.779 108.585 123.285 108.926C123.528 109.089 123.74 109.15 123.93 109.148C124.119 109.147 124.334 109.082 124.578 108.914C125.086 108.564 125.658 107.817 126.266 106.574C126.867 105.345 127.476 103.689 128.09 101.598C129.328 97.3819 130.585 94.411 131.887 92.7657C132.538 91.9422 133.252 91.3875 134.039 91.2344C134.853 91.0764 135.624 91.3707 136.32 91.9805C138.841 94.189 141.343 97.2738 143.832 101.215C145.049 103.142 146.219 104.281 147.316 104.75C148.366 105.198 149.418 105.061 150.535 104.246C152.926 102.503 155.359 99.495 157.816 95.1719C158.45 94.0579 159.118 93.2344 159.836 92.7735C160.587 92.2919 161.388 92.2153 162.176 92.5899C162.92 92.9444 163.601 93.6771 164.238 94.6914C164.882 95.7168 165.516 97.0844 166.141 98.7774C167.372 102.115 168.582 104.387 169.75 105.66C170.331 106.293 170.873 106.646 171.371 106.785C171.854 106.92 172.34 106.868 172.855 106.594C174.219 105.87 175.614 105.794 176.996 106.387C178.351 106.968 179.652 108.176 180.914 109.93C182.117 111.601 183.162 112.042 184.078 111.773C184.573 111.628 185.117 111.259 185.699 110.598C186.28 109.938 186.877 109.013 187.484 107.813C189.969 102.9 192.466 99.0914 194.984 96.4102C195.639 95.7137 196.326 95.2221 197.047 94.9805C197.779 94.7355 198.517 94.761 199.242 95.0469C200.654 95.6039 201.964 97.1339 203.211 99.4453C204.434 101.713 205.641 103.415 206.828 104.574C208.015 105.733 209.152 106.322 210.238 106.43C211.28 106.532 212.381 106.093 213.555 104.965C214.731 103.833 215.936 102.046 217.16 99.5703C217.79 98.2967 218.44 97.3143 219.117 96.6602C219.798 96.003 220.552 95.6384 221.363 95.711C222.163 95.7829 222.89 96.2706 223.551 97.0274C224.214 97.7876 224.856 98.8713 225.484 100.254C226.714 102.961 227.906 104.649 229.027 105.434C229.575 105.817 230.086 105.97 230.57 105.945C231.057 105.921 231.578 105.713 232.137 105.266C234.71 103.204 237.357 102.558 240.027 103.453C241.123 103.82 242.218 103.717 243.344 103.113C244.486 102.501 245.67 101.364 246.883 99.6563C248.146 97.878 249.521 96.8511 251.02 96.9102C252.507 96.9689 253.867 98.0906 255.125 99.961C257.576 103.606 259.949 105.493 262.211 105.856C264.428 106.21 266.743 105.083 269.168 102.176C271.659 99.1892 274.156 96.7277 276.664 94.8008C277.962 93.8037 279.298 93.2582 280.664 93.2149C282.032 93.1716 283.375 93.6347 284.68 94.5547C287.194 96.3272 289.698 98.6741 292.191 101.59C294.628 104.439 297.015 106.107 299.348 106.68C301.894 107.305 304.427 108.531 306.941 110.344C308.117 111.192 309.263 111.623 310.383 111.676C311.5 111.728 312.639 111.407 313.805 110.676C316.271 109.13 318.74 107.504 321.207 105.797C323.747 104.04 326.32 103.159 328.918 103.203C329.968 103.221 331.084 102.704 332.266 101.504C333.448 100.303 334.654 98.4614 335.879 95.9532C336.508 94.6645 337.162 93.6858 337.848 93.0586C338.543 92.4226 339.322 92.1126 340.148 92.293C340.94 92.4665 341.65 93.0641 342.297 93.9375C342.951 94.8211 343.589 96.0506 344.215 97.6055C344.826 99.1231 345.427 100.324 346.02 101.215C346.616 102.112 347.179 102.662 347.691 102.93C348.177 103.183 348.632 103.193 349.105 102.977C349.607 102.747 350.164 102.244 350.758 101.391C353.246 97.8139 355.742 94.8338 358.246 92.461C358.911 91.8308 359.617 91.4233 360.363 91.3008C361.12 91.1769 361.859 91.3569 362.562 91.793C363.934 92.643 365.222 94.5001 366.465 97.2188C367.692 99.9043 368.913 102.052 370.121 103.672C371.332 105.295 372.513 106.363 373.652 106.926C374.768 107.476 375.857 107.526 376.957 107.094C378.078 106.653 379.249 105.691 380.457 104.145C382.967 100.932 385.579 99.248 388.293 99.3633C390.854 99.4724 393.403 100.242 395.934 101.656C398.445 103.059 400.949 104.893 403.445 107.156C405.837 109.324 408.145 110.036 410.406 109.457C412.949 108.806 415.497 108.715 418.043 109.191C419.108 109.39 420.203 109.096 421.355 108.215C422.519 107.325 423.717 105.853 424.938 103.758C426.189 101.61 427.458 99.9557 428.75 98.8203C430.044 97.6829 431.386 97.0456 432.77 96.9883C435.309 96.8831 437.846 97.2708 440.375 98.1485C442.952 99.043 445.492 100.891 448 103.645C449.168 104.927 450.213 105.262 451.188 104.953C452.236 104.621 453.394 103.501 454.617 101.383C455.867 99.2196 457.187 97.807 458.613 97.3633C460.112 96.8982 461.538 97.5443 462.84 98.9883C464.03 100.309 465.15 100.906 466.195 100.938C467.235 100.969 468.344 100.444 469.527 99.2031C472.066 96.5384 474.708 95.3823 477.418 95.9766C479.661 96.4681 481.97 95.6006 484.375 93.1524C485.041 92.4746 485.758 92.0441 486.531 91.9609C487.315 91.8768 488.062 92.1593 488.754 92.7149C490.104 93.7996 491.379 96.0346 492.617 99.2852C493.228 100.889 493.826 102.058 494.402 102.816C494.987 103.586 495.478 103.843 495.863 103.848C496.247 103.851 496.737 103.605 497.32 102.848C497.895 102.101 498.49 100.944 499.102 99.3516C499.727 97.7221 500.365 96.4316 501.016 95.4961C501.658 94.5723 502.361 93.9275 503.148 93.7149C503.979 93.4913 504.767 93.7791 505.469 94.4102C506.158 95.0296 506.812 96.0153 507.441 97.3164C508.666 99.8484 509.872 101.661 511.047 102.793C512.217 103.92 513.307 104.329 514.34 104.184C516.834 103.833 519.33 103.643 521.824 103.609C524.008 103.579 526.355 101.703 528.82 97.5469C530.064 95.4509 531.433 94.1808 532.969 94.207C533.738 94.2202 534.467 94.5635 535.145 95.1524C535.819 95.7387 536.468 96.5907 537.102 97.6797C538.322 99.7794 539.5 101.064 540.609 101.637C541.154 101.918 541.679 102.024 542.191 101.98C542.707 101.937 543.247 101.737 543.809 101.352C545.119 100.452 546.467 100.028 547.84 100.133C549.208 100.238 550.54 100.864 551.832 101.949C554.248 103.978 556.625 105.044 558.965 105.211C561.146 105.366 563.478 103.783 565.934 100.031C567.188 98.1158 568.56 96.9864 570.078 97.043C571.395 97.0923 572.6 98.0297 573.719 99.6055L574.648 101C575.692 102.456 576.639 103.02 577.465 102.992C578.422 102.959 579.535 102.123 580.762 100.074C582.014 97.9828 583.327 96.6052 584.734 96.1133C586.208 95.5987 587.635 96.0977 588.957 97.3828C591.353 99.7124 593.653 100.465 595.898 99.8516C598.534 99.1314 601.154 99.6601 603.727 101.371C604.286 101.743 604.822 101.931 605.336 101.961C605.847 101.991 606.371 101.866 606.918 101.566C608.032 100.956 609.212 99.627 610.434 97.4766C611.08 96.3383 611.844 95.5225 612.746 95.1172C613.667 94.7038 614.659 94.7498 615.68 95.1914C616.687 95.6276 617.739 96.4511 618.832 97.6172C619.928 98.7872 621.091 100.327 622.32 102.227L622 102.434L622 103L621.629 103L621.48 102.773C620.271 100.905 619.144 99.4171 618.102 98.3047C617.056 97.1885 616.116 96.4693 615.285 96.1094C614.469 95.7559 613.772 95.751 613.156 96.0273C612.521 96.3124 611.895 96.9307 611.305 97.9688C610.053 100.172 608.758 101.701 607.398 102.445C606.711 102.822 606.001 102.999 605.277 102.957C604.554 102.915 603.849 102.654 603.172 102.203C600.798 100.625 598.471 100.185 596.16 100.816C593.459 101.554 590.812 100.577 588.262 98.0977C587.111 96.9792 586.065 96.7066 585.066 97.0547C584.001 97.4267 582.838 98.5499 581.617 100.59C580.372 102.67 579.012 103.941 577.496 103.992C575.967 104.044 574.597 102.849 573.348 100.848C572.125 98.8888 571.011 98.0802 570.043 98.043C569.088 98.0072 567.988 98.7174 566.77 100.578C564.279 104.384 561.66 106.404 558.895 106.207C556.288 106.022 553.717 104.839 551.188 102.715C550.007 101.723 548.867 101.213 547.762 101.129C546.662 101.045 545.538 101.378 544.375 102.176C543.7 102.639 542.998 102.915 542.277 102.977C541.555 103.038 540.843 102.88 540.152 102.523C538.788 101.819 537.491 100.334 536.238 98.1797C535.635 97.1431 535.05 96.3938 534.488 95.9063C533.93 95.4216 533.42 95.2155 532.953 95.207C532.016 95.191 530.909 95.9858 529.68 98.0586C527.199 102.241 524.598 104.572 521.836 104.609C519.384 104.643 516.933 104.831 514.48 105.176C513.04 105.378 511.655 104.771 510.352 103.516C509.054 102.265 507.787 100.329 506.539 97.75C505.932 96.4951 505.348 95.6445 504.801 95.1524C504.267 94.6723 503.817 94.5704 503.41 94.6797C502.961 94.8006 502.43 95.2131 501.836 96.0664C501.25 96.9087 500.647 98.1179 500.035 99.7109C499.41 101.34 498.771 102.599 498.109 103.457C497.456 104.304 496.709 104.856 495.855 104.848C495.004 104.84 494.257 104.276 493.605 103.418C492.946 102.549 492.308 101.28 491.684 99.6406C490.449 96.401 489.248 94.3944 488.125 93.4922C487.581 93.0555 487.089 92.9084 486.637 92.957C486.174 93.0073 485.656 93.2715 485.086 93.8516C482.544 96.4389 479.906 97.5459 477.203 96.9531C474.967 96.4627 472.662 97.3637 470.254 99.8906C468.964 101.245 467.597 101.98 466.164 101.938C464.737 101.894 463.38 101.083 462.098 99.6602C460.928 98.3621 459.883 98.0185 458.91 98.3203C457.864 98.6458 456.708 99.7635 455.484 101.883C454.235 104.045 452.916 105.454 451.492 105.906C449.995 106.381 448.566 105.752 447.262 104.32C444.823 101.643 442.416 99.916 440.047 99.0938C437.63 98.2551 435.219 97.8888 432.812 97.9883C431.723 98.0334 430.589 98.5339 429.41 99.5703C428.229 100.609 427.022 102.165 425.801 104.262C424.549 106.411 423.274 108.006 421.965 109.008C420.645 110.017 419.267 110.439 417.859 110.176C415.459 109.727 413.056 109.81 410.652 110.426C407.968 111.113 405.328 110.214 402.773 107.898C400.323 105.677 397.88 103.888 395.445 102.527C393.031 101.179 390.634 100.461 388.25 100.359C386.018 100.265 383.679 101.642 381.242 104.762C379.977 106.381 378.675 107.492 377.324 108.023C375.951 108.564 374.565 108.49 373.207 107.82C371.874 107.162 370.582 105.961 369.32 104.27C368.056 102.574 366.8 100.358 365.555 97.6328C364.324 94.9408 363.137 93.324 362.035 92.6406C361.503 92.3111 361.007 92.2108 360.527 92.2891C360.038 92.3693 359.505 92.6462 358.934 93.1875C356.491 95.5027 354.041 98.4261 351.582 101.961C350.94 102.884 350.258 103.551 349.523 103.887C348.76 104.236 347.978 104.205 347.227 103.813C346.503 103.433 345.827 102.73 345.187 101.77C344.544 100.802 343.911 99.5343 343.285 97.9805C342.675 96.4642 342.075 95.3225 341.492 94.5352C340.903 93.7389 340.378 93.3668 339.934 93.2696C339.523 93.18 339.064 93.2992 338.523 93.793C337.973 94.2967 337.384 95.1483 336.777 96.3906C335.53 98.9451 334.267 100.893 332.977 102.203C331.686 103.514 330.325 104.227 328.902 104.203C326.554 104.163 324.18 104.953 321.773 106.617C319.294 108.332 316.816 109.969 314.336 111.523C313.029 112.343 311.692 112.74 310.336 112.676C308.983 112.612 307.656 112.091 306.359 111.156C303.928 109.403 301.509 108.241 299.109 107.652C296.496 107.011 293.939 105.176 291.43 102.242C288.977 99.3736 286.533 97.0854 284.102 95.3711C282.933 94.5478 281.801 94.1798 280.695 94.2149C279.588 94.2501 278.449 94.6909 277.273 95.5938C274.835 97.4669 272.388 99.8732 269.934 102.816C267.413 105.838 264.78 107.281 262.051 106.844C259.367 106.414 256.792 104.229 254.297 100.52C253.082 98.7125 251.966 97.9453 250.98 97.9063C250.006 97.8678 248.909 98.535 247.699 100.238C246.439 102.012 245.147 103.282 243.816 103.996C242.469 104.719 241.089 104.864 239.711 104.402C237.435 103.639 235.135 104.145 232.762 106.047C232.085 106.589 231.37 106.907 230.621 106.945C229.869 106.983 229.142 106.736 228.453 106.254C227.101 105.307 225.818 103.406 224.574 100.668C223.966 99.328 223.37 98.3405 222.797 97.6836C222.221 97.0236 221.711 96.7464 221.273 96.7071C220.85 96.6695 220.367 96.8433 219.812 97.3789C219.253 97.9191 218.665 98.7859 218.059 100.012C216.81 102.536 215.542 104.441 214.246 105.688C212.946 106.937 211.572 107.567 210.141 107.426C208.754 107.289 207.415 106.545 206.129 105.289C204.843 104.033 203.577 102.234 202.328 99.918C201.102 97.6448 199.937 96.3955 198.875 95.9766C198.364 95.7753 197.867 95.7608 197.363 95.9297C196.848 96.1026 196.297 96.4777 195.715 97.0977C193.287 99.6836 190.837 103.399 188.375 108.266C187.746 109.51 187.105 110.513 186.449 111.258C185.795 112 185.1 112.513 184.359 112.731C182.803 113.187 181.375 112.276 180.105 110.512C178.894 108.829 177.72 107.785 176.602 107.305C175.511 106.837 174.433 106.888 173.324 107.477C172.604 107.859 171.855 107.96 171.102 107.75C170.363 107.544 169.668 107.051 169.012 106.336C167.707 104.914 166.441 102.49 165.199 99.125C164.587 97.4663 163.984 96.1673 163.391 95.2227C162.792 94.27 162.237 93.7261 161.746 93.4922C161.297 93.2787 160.86 93.3021 160.375 93.6133C159.857 93.9457 159.286 94.6076 158.684 95.668C156.195 100.045 153.681 103.192 151.125 105.055C149.769 106.043 148.346 106.276 146.922 105.668C145.547 105.08 144.244 103.734 142.988 101.746C140.531 97.8564 138.086 94.8594 135.66 92.7344C135.12 92.2609 134.653 92.1329 134.23 92.2149C133.781 92.3021 133.257 92.6472 132.672 93.3868C131.5 94.8685 130.286 97.674 129.051 101.879C128.429 103.998 127.799 105.712 127.164 107.012C126.536 108.296 125.872 109.238 125.145 109.738C124.771 109.995 124.366 110.145 123.938 110.148C123.509 110.151 123.102 110.006 122.727 109.754C121.997 109.263 121.331 108.33 120.703 107.055C119.479 104.567 118.276 102.839 117.113 101.824C115.965 100.822 114.896 100.544 113.867 100.84C111.242 101.594 108.626 101.163 106.051 99.5938C104.947 98.9216 103.887 98.8544 102.812 99.3594C101.7 99.8826 100.525 101.041 99.3086 102.926C96.82 106.782 94.3219 109.873 91.8086 112.184C90.5027 113.384 89.1227 113.953 87.6914 113.75Z" fill="url(#paint2_radial_515_182)" style=""/>
<defs>
<filter id="filter1_f_515_182" x="595" y="16" width="215" height="168" filterUnits="userSpaceOnUse" color-interpolation-filters="sRGB">
<feFlood flood-opacity="0" result="BackgroundImageFix"/>
<feBlend mode="normal" in="SourceGraphic" in2="BackgroundImageFix" result="shape"/>
<feGaussianBlur stdDeviation="27" result="effect1_foregroundBlur_515_182"/>
</filter>
<filter id="filter2_f_515_182" x="540" y="-19" width="173" height="245" filterUnits="userSpaceOnUse" color-interpolation-filters="sRGB">
<feFlood flood-opacity="0" result="BackgroundImageFix"/>
<feBlend mode="normal" in="SourceGraphic" in2="BackgroundImageFix" result="shape"/>
<feGaussianBlur stdDeviation="27" result="effect1_foregroundBlur_515_182"/>
</filter>
<filter id="filter3_f_515_182" x="687" y="15" width="173" height="173" filterUnits="userSpaceOnUse" color-interpolation-filters="sRGB">
<feFlood flood-opacity="0" result="BackgroundImageFix"/>
<feBlend mode="normal" in="SourceGraphic" in2="BackgroundImageFix" result="shape"/>
<feGaussianBlur stdDeviation="27" result="effect1_foregroundBlur_515_182"/>
</filter>
<radialGradient id="paint0_radial_515_182" cx="0" cy="0" r="1" gradientUnits="userSpaceOnUse" gradientTransform="translate(802 76.5) rotate(170.39) scale(95.8449)">
<stop stop-color="#FF1B50" style="stop-color:#FF1B50;stop-color:color(display-p3 1.0000 0.1063 0.3148);stop-opacity:1;"/>
<stop offset="1" stop-color="#666666" stop-opacity="0.25" style="stop-color:#666666;stop-color:color(display-p3 0.4000 0.4000 0.4000);stop-opacity:0.25;"/>
</radialGradient>
<radialGradient id="paint1_radial_515_182" cx="0" cy="0" r="1" gradientUnits="userSpaceOnUse" gradientTransform="translate(845.5 88) rotate(23.0667) scale(399.435 192.896)">
<stop stop-color="#F43F5E" style="stop-color:#F43F5E;stop-color:color(display-p3 0.9569 0.2471 0.3686);stop-opacity:1;"/>
<stop offset="1" stop-color="#F43F5E" stop-opacity="0" style="stop-color:none;stop-opacity:0;"/>
</radialGradient>
<radialGradient id="paint2_radial_515_182" cx="0" cy="0" r="1" gradientUnits="userSpaceOnUse" gradientTransform="translate(598.5 88) rotate(156.933) scale(399.435 192.896)">
<stop stop-color="#F43F5E" style="stop-color:#F43F5E;stop-color:color(display-p3 0.9569 0.2471 0.3686);stop-opacity:1;"/>
<stop offset="1" stop-color="#F43F5E" stop-opacity="0" style="stop-color:none;stop-opacity:0;"/>
</radialGradient>
<clipPath id="clip0_515_182">
<rect x="622" width="200" height="200" rx="100" fill="white" style="fill:white;fill-opacity:1;"/>
</clipPath>
</defs>
</svg>
